<svg id="logo" xmlns="http://www.w3.org/2000/svg" width="189.373" height="44.254" viewBox="0 0 189.373 44.254">
  <path id="Контур_1" data-name="Контур 1" d="M271.053,66.31V64.773q0-7.365-4.188-10.385-3.706-2.7-12.08-2.7-9.75,0-13.724,2.649a9.644,9.644,0,0,0-3.383,3.959l10.253,33.769q2.714.266,6.854.266,9.43,0,12.849-2.941t3.419-11.261V76.961H260.137v1.165q0,3.234-1.642,4.239-1.221.746-4.876.743-4.452,0-5.723-2.014-.9-1.431-.9-6.412v-6.2q0-4.556,1.059-5.934,1.274-1.641,5.564-1.643a11.045,11.045,0,0,1,4.611.742,3.248,3.248,0,0,1,1.907,3.126V66.31Z" transform="translate(-169.445 -51.685)"/>
  <path id="Контур_2" data-name="Контур 2" d="M201.4,52.382,194.19,77.342h-.37l-7.577-24.959h-16.8v39.8h10.6l-1.06-30.629h.478l10.014,30.629h9.167L208.6,61.55l.478.106-1.04,29.913,10.578-35.3V52.382Z" transform="translate(-169.445 -51.685)"/>
  <path id="Контур_3" data-name="Контур 3" d="M223.117,77.671l4.929-17.327,4.874,17.327Z" transform="translate(-169.445 -51.685)" fill="#77b534"/>
  <path id="Контур_4" data-name="Контур 4" d="M220.839,85.356h14.254l2.067,6.836H218.777Z" transform="translate(-169.445 -51.685)" fill="#77b534"/>
  <path id="Контур_5" data-name="Контур 5" d="M356,90.175q-.248.366-1.129.367t-1.1-.367a3.871,3.871,0,0,1-.232-1.712,3.677,3.677,0,0,1,.254-1.644,1.133,1.133,0,0,1,1.077-.45c.578,0,.952.151,1.121.45a3.724,3.724,0,0,1,.254,1.659,3.629,3.629,0,0,1-.246,1.7m.246-4.24a1.862,1.862,0,0,0-.785-1.2,2.782,2.782,0,0,0-1.443-.336,2.742,2.742,0,0,0-2.542,1.076,6.233,6.233,0,0,0-.508,2.991,6.231,6.231,0,0,0,.479,2.87,2.7,2.7,0,0,0,2.571,1.182,2.483,2.483,0,0,0,1.331-.352,1.915,1.915,0,0,0,.808-1.054h.089v1.63a1.556,1.556,0,0,1-.254,1.077,1.707,1.707,0,0,1-1.091.239,2.082,2.082,0,0,1-.853-.12.715.715,0,0,1-.343-.7h-2.393a2.424,2.424,0,0,0,.868,2.167,5.679,5.679,0,0,0,2.945.539,3.984,3.984,0,0,0,2.99-.852,4.768,4.768,0,0,0,.7-3.05V84.546h-2.572l.09,1.389Zm-14.324-1.389V92.4h2.572V88.075a2.386,2.386,0,0,1,.239-1.212,1.212,1.212,0,0,1,1.107-.494,1,1,0,0,1,.837.292,1.487,1.487,0,0,1,.225.9V92.4h2.571V86.967a2.7,2.7,0,0,0-.613-1.929,2.517,2.517,0,0,0-1.9-.642,2.859,2.859,0,0,0-1.54.367,2.121,2.121,0,0,0-.852,1.248h-.075V84.546Zm-4.216-1.406h2.572V81.167h-2.572Zm0,9.256h2.572v-7.85h-2.572Zm-4.441-7.85V82.885h-2.572v1.661h-.957v1.883h.957V90.3a1.934,1.934,0,0,0,.882,1.853,4.61,4.61,0,0,0,2.124.359,3.553,3.553,0,0,0,2.228-.509,2.677,2.677,0,0,0,.657-2.108v-.7h-2.063v.419a1.6,1.6,0,0,1-.149.718.538.538,0,0,1-.524.3.558.558,0,0,1-.464-.157.9.9,0,0,1-.119-.53V86.429h2.976V84.546Zm-7.132,7.85H328.7V81.167h-2.572Zm-9.181-2.483a2.554,2.554,0,0,0,.748,2.02,2.836,2.836,0,0,0,1.914.582,2.666,2.666,0,0,0,1.45-.359,2.131,2.131,0,0,0,.9-1.271h.12l-.09,1.511h2.5v-7.85h-2.571v4.829a1.011,1.011,0,0,1-.412.859,1.588,1.588,0,0,1-.979.308.865.865,0,0,1-.784-.33,1.8,1.8,0,0,1-.218-.987V84.546h-2.572Zm-1.719-3.573a1.621,1.621,0,0,0-.643-1.406,5.192,5.192,0,0,0-2.826-.538,6.4,6.4,0,0,0-2.8.434,2.224,2.224,0,0,0-1.047,2.153,2.01,2.01,0,0,0,.86,1.809,5.713,5.713,0,0,0,2.983.568,2.438,2.438,0,0,1,1.07.157.654.654,0,0,1,.276.62c0,.309-.088.506-.262.591a2.942,2.942,0,0,1-1.084.127,2.216,2.216,0,0,1-.987-.156c-.19-.106-.284-.337-.284-.695h-2.572a2.165,2.165,0,0,0,.972,2.122,7.373,7.373,0,0,0,2.961.389,5.9,5.9,0,0,0,2.84-.478,2.39,2.39,0,0,0,.913-2.2,2,2,0,0,0-.927-1.928,6.732,6.732,0,0,0-2.916-.434,2.08,2.08,0,0,1-1.152-.223.608.608,0,0,1-.194-.509.587.587,0,0,1,.239-.539,2.516,2.516,0,0,1,1.107-.15,1.69,1.69,0,0,1,.785.128.659.659,0,0,1,.262.531h2.422Zm-16.209-1.794V92.4H301.6V88.075a2.386,2.386,0,0,1,.239-1.212,1.21,1.21,0,0,1,1.106-.494,1.008,1.008,0,0,1,.838.292,1.488,1.488,0,0,1,.223.9V92.4h2.573V86.967a2.7,2.7,0,0,0-.614-1.929,2.516,2.516,0,0,0-1.9-.642,2.853,2.853,0,0,0-1.539.367,2.121,2.121,0,0,0-.852,1.248H301.6V84.546Zm-4.163,5.629q-.247.366-1.129.367t-1.1-.367a3.887,3.887,0,0,1-.232-1.712,3.677,3.677,0,0,1,.254-1.644,1.133,1.133,0,0,1,1.077-.45c.578,0,.952.151,1.121.45a3.724,3.724,0,0,1,.254,1.659,3.615,3.615,0,0,1-.246,1.7M290.569,85.2q-.74.807-.74,3.274a4.813,4.813,0,0,0,.778,3.214q.777.823,3.139.823,2.439,0,3.186-.792t.748-3.245q0-2.512-.741-3.3t-3.193-.784q-2.436,0-3.177.808m-1.936-.434a3.373,3.373,0,0,0-1.181-2.932,5.916,5.916,0,0,0-3.409-.76,7.351,7.351,0,0,0-3.873.746q-1.406.929-1.4,3.513v2.9a5.157,5.157,0,0,0,.688,2.945,3.041,3.041,0,0,0,1.869,1.167,13.376,13.376,0,0,0,2.721.194q2.661,0,3.626-.831t.964-3.176v-.33h-3.08v.33a1.3,1.3,0,0,1-.463,1.2,3,3,0,0,1-1.376.21c-.837,0-1.375-.191-1.615-.569a4.04,4.04,0,0,1-.254-1.809v-1.75a3.081,3.081,0,0,1,.3-1.675,1.965,1.965,0,0,1,1.57-.463,3.129,3.129,0,0,1,1.3.209.918.918,0,0,1,.538.883V85.2h3.08Z" transform="translate(-169.445 -51.685)"/>
  <path id="Контур_6" data-name="Контур 6" d="M331.889,72.038a1.62,1.62,0,0,0-.642-1.406,5.205,5.205,0,0,0-2.827-.538,6.4,6.4,0,0,0-2.8.433,2.226,2.226,0,0,0-1.047,2.154,2.01,2.01,0,0,0,.86,1.809,5.7,5.7,0,0,0,2.982.568,2.453,2.453,0,0,1,1.07.157.65.65,0,0,1,.276.62c0,.309-.087.507-.261.592a2.952,2.952,0,0,1-1.085.126,2.211,2.211,0,0,1-.986-.157c-.19-.1-.284-.336-.284-.7h-2.572a2.169,2.169,0,0,0,.972,2.124,7.394,7.394,0,0,0,2.96.388,5.878,5.878,0,0,0,2.841-.478,2.385,2.385,0,0,0,.913-2.2,2,2,0,0,0-.927-1.928,6.734,6.734,0,0,0-2.917-.434,2.048,2.048,0,0,1-1.15-.224.6.6,0,0,1-.195-.508.583.583,0,0,1,.239-.539,2.511,2.511,0,0,1,1.106-.15,1.692,1.692,0,0,1,.786.128.656.656,0,0,1,.261.531h2.422Zm-8.732,0a1.618,1.618,0,0,0-.643-1.406,5.2,5.2,0,0,0-2.825-.538,6.4,6.4,0,0,0-2.8.433,2.224,2.224,0,0,0-1.047,2.154,2.008,2.008,0,0,0,.86,1.809,5.7,5.7,0,0,0,2.983.568,2.45,2.45,0,0,1,1.069.157.652.652,0,0,1,.276.62c0,.309-.087.507-.261.592a2.949,2.949,0,0,1-1.084.126,2.21,2.21,0,0,1-.987-.157c-.19-.1-.284-.336-.284-.7h-2.572a2.17,2.17,0,0,0,.971,2.124,7.4,7.4,0,0,0,2.961.388,5.883,5.883,0,0,0,2.841-.478,2.387,2.387,0,0,0,.912-2.2,2,2,0,0,0-.927-1.928,6.723,6.723,0,0,0-2.915-.434,2.06,2.06,0,0,1-1.152-.224.6.6,0,0,1-.194-.508.583.583,0,0,1,.239-.539,2.519,2.519,0,0,1,1.107-.15,1.69,1.69,0,0,1,.785.128.658.658,0,0,1,.261.531h2.422ZM314.8,74.176a4.812,4.812,0,0,0-.8-3.237,4.147,4.147,0,0,0-3.028-.845q-2.3,0-3.11.912a4.985,4.985,0,0,0-.732,3.17,4.812,4.812,0,0,0,.785,3.155q.785.882,3.057.881a6.489,6.489,0,0,0,2.737-.4,2.272,2.272,0,0,0,1.091-2.228h-2.571c0,.38-.11.623-.329.733a2.617,2.617,0,0,1-.928.1q-.792,0-1.031-.365a2.927,2.927,0,0,1-.24-1.443h5.1Zm-4.837-2.026a1.364,1.364,0,0,1,.965-.262,1.657,1.657,0,0,1,1.016.232q.285.232.285,1.069H309.7a1.5,1.5,0,0,1,.262-1.039m-4.851-1.563a5.543,5.543,0,0,0-2.752-.493,3.76,3.76,0,0,0-3.1,1.047,5.119,5.119,0,0,0-.657,3.035,4.934,4.934,0,0,0,.754,3.192q.755.846,3,.844a5.2,5.2,0,0,0,2.9-.567,3.185,3.185,0,0,0,.9-2.662h-2.572a1.775,1.775,0,0,1-.194,1.025q-.2.231-1.032.231-.749,0-.964-.359a4.054,4.054,0,0,1-.217-1.7,3.907,3.907,0,0,1,.239-1.713,1.014,1.014,0,0,1,.942-.395,1.646,1.646,0,0,1,.995.2,1.155,1.155,0,0,1,.231.86h2.572a2.774,2.774,0,0,0-1.046-2.542m-8.523,0a5.539,5.539,0,0,0-2.751-.493,3.763,3.763,0,0,0-3.1,1.047,5.118,5.118,0,0,0-.658,3.035,4.926,4.926,0,0,0,.756,3.192q.755.846,3,.844a5.2,5.2,0,0,0,2.9-.567,3.185,3.185,0,0,0,.9-2.662h-2.571a1.775,1.775,0,0,1-.194,1.025q-.195.231-1.032.231-.748,0-.965-.359a4.053,4.053,0,0,1-.217-1.7,3.887,3.887,0,0,1,.24-1.713,1.012,1.012,0,0,1,.942-.395,1.643,1.643,0,0,1,.994.2,1.15,1.15,0,0,1,.232.86h2.571a2.774,2.774,0,0,0-1.046-2.542M282.473,74l1.391-4.89L285.239,74Zm3.962,4.1h3.051l-3.41-11.228h-4.545l-3.364,11.228h3.11l.553-1.929h4.022Z" transform="translate(-169.445 -51.685)" fill="#77b534"/>
  <path id="Контур_7" data-name="Контур 7" d="M331.979,55.941V54.282h-2.571v1.659h-.957v1.884h.957V61.7a1.934,1.934,0,0,0,.882,1.854,4.616,4.616,0,0,0,2.123.359,3.55,3.55,0,0,0,2.227-.509,2.673,2.673,0,0,0,.658-2.108v-.7h-2.062v.418a1.6,1.6,0,0,1-.15.719.537.537,0,0,1-.523.3.556.556,0,0,1-.464-.157.9.9,0,0,1-.12-.531V57.825h2.976V55.941Zm-4.261,3.933a4.812,4.812,0,0,0-.8-3.237,4.148,4.148,0,0,0-3.028-.845q-2.3,0-3.11.912a4.984,4.984,0,0,0-.732,3.17,4.8,4.8,0,0,0,.785,3.154q.784.884,3.057.883a6.5,6.5,0,0,0,2.737-.4,2.273,2.273,0,0,0,1.091-2.228h-2.572q0,.569-.329.733a2.6,2.6,0,0,1-.927.1q-.792,0-1.032-.367a2.934,2.934,0,0,1-.239-1.442h5.1Zm-4.837-2.026a1.365,1.365,0,0,1,.964-.262,1.658,1.658,0,0,1,1.017.232q.285.232.284,1.069h-2.527a1.5,1.5,0,0,1,.262-1.039m-11.386-5.285V63.791h2.572V60.606h.449l1.883,3.185H319.4l-2.722-4.081,2.213-3.769H316.07l-1.554,2.946h-.449V52.563Zm-7.656,3.378v7.85h2.573v-4.71a2.092,2.092,0,0,1,.186-.941.718.718,0,0,1,.711-.374.614.614,0,0,1,.6.4,2.13,2.13,0,0,1,.135.822v.39h2.317v-.629a5.087,5.087,0,0,0-.3-2.019,1.629,1.629,0,0,0-1.63-.941,2.278,2.278,0,0,0-1.241.321,2.019,2.019,0,0,0-.777.979V55.941Zm-4.5,6.123a2.258,2.258,0,0,1-1.121.187,1.246,1.246,0,0,1-.883-.239.868.868,0,0,1-.239-.643.694.694,0,0,1,.329-.673,1.854,1.854,0,0,1,.793-.12,3.483,3.483,0,0,1,1.069.12.532.532,0,0,1,.336.568c0,.41-.094.676-.284.8m.284,1.727H302.2v-4.9a3.006,3.006,0,0,0-.882-2.572,5.35,5.35,0,0,0-2.856-.523,6.766,6.766,0,0,0-2.542.329,2.019,2.019,0,0,0-1.076,2.048h2.571a.7.7,0,0,1,.448-.762,2.172,2.172,0,0,1,.614-.06,1.135,1.135,0,0,1,1,.359,1.852,1.852,0,0,1,.149.912v1.241H299.5a1.148,1.148,0,0,0-.838-.763,5.136,5.136,0,0,0-1.3-.119,3.452,3.452,0,0,0-2.153.545,3.025,3.025,0,0,0,.06,3.91,4.528,4.528,0,0,0,3.484.239,1.36,1.36,0,0,0,.867-1.046h.09Zm-20.559,0h2.991l-.3-8.642h.134l2.825,8.642H287.3l2.81-8.642.135.03-.3,8.612h2.991V52.563h-4.86L286.046,59.6h-.1L283.8,52.563h-4.74Z" transform="translate(-169.445 -51.685)"/>
</svg>
